<?xml version='1.0' encoding='utf-8'?>
<!-- Generator: imaengine 6.0   -->
<svg xmlns:xlink="http://www.w3.org/1999/xlink" xmlns="http://www.w3.org/2000/svg" viewBox="0,0,630,75" style="enable-background:new 0 0 630 75;" version="1.1">
<defs>
<mask id="mask" mask-type="alpha">
<g>
<path d="M241.952,-1.22719L632.852,-1.22719L632.852,135.679L241.952,135.679L241.952,-1.22719Z" fill-rule="evenodd" fill="#FFFFFF"/>
</g>
</mask>
<mask id="mask_2" mask-type="alpha">
<g>
<path d="M241.952,-1.22719L632.852,-1.22719L632.852,135.679L241.952,135.679L241.952,-1.22719Z" fill-rule="evenodd" fill="#FFFFFF"/>
</g>
</mask>
<mask id="mask_3" mask-type="alpha">
<g>
<path d="M241.952,-1.22719L632.852,-1.22719L632.852,135.679L241.952,135.679L241.952,-1.22719Z" fill-rule="evenodd" fill="#FFFFFF"/>
</g>
</mask>
<mask id="mask_4" mask-type="alpha">
<g>
<path d="M241.952,-1.22719L632.852,-1.22719L632.852,135.679L241.952,135.679L241.952,-1.22719Z" fill-rule="evenodd" fill="#FFFFFF"/>
</g>
</mask>
<mask id="mask_5" mask-type="alpha">
<g>
<path d="M241.952,-1.22719L632.852,-1.22719L632.852,135.679L241.952,135.679L241.952,-1.22719Z" fill-rule="evenodd" fill="#FFFFFF"/>
</g>
</mask>
<mask id="mask_6" mask-type="alpha">
<g>
<path d="M241.952,-1.22719L632.852,-1.22719L632.852,135.679L241.952,135.679L241.952,-1.22719Z" fill-rule="evenodd" fill="#FFFFFF"/>
</g>
</mask>
<mask id="mask_7" mask-type="alpha">
<g>
<path d="M241.952,-1.22719L632.852,-1.22719L632.852,135.679L241.952,135.679L241.952,-1.22719Z" fill-rule="evenodd" fill="#FFFFFF"/>
</g>
</mask>
<mask id="mask_8" mask-type="alpha">
<g>
<path d="M241.952,-1.22719L632.852,-1.22719L632.852,135.679L241.952,135.679L241.952,-1.22719Z" fill-rule="evenodd" fill="#FFFFFF"/>
</g>
</mask>
</defs>
<g id="layer0">
<g>
<path d="M118.899,52.2633C124.39,52.2633 128.717,50.1 132.211,45.7734L139.367,53.0954C133.709,59.4189 127.219,62.5807 119.564,62.5807C111.91,62.5807 105.752,60.2509 100.76,55.4251C95.7679,50.5992 93.4382,44.6085 93.4382,37.2866C93.4382,29.9646 95.9343,23.8074 100.927,18.9816C105.919,14.1557 112.076,11.6596 119.398,11.6596C127.552,11.6596 134.375,14.8214 139.7,20.9785L132.877,28.7997C129.382,24.4731 125.056,22.3098 119.897,22.3098C115.737,22.3098 112.242,23.641 109.247,26.3036C106.252,28.9661 104.754,32.6271 104.754,37.2866C104.754,41.946 106.085,45.607 108.914,48.4359C111.577,50.7656 114.905,52.2633 118.899,52.2633L118.899,52.2633L118.899,52.2633Z" fill-rule="evenodd" fill="#FFFFFF"/>
<path d="M148.02,61.915L148.02,12.4917L159.003,12.4917L159.003,52.0969L180.137,52.0969L180.137,61.915L148.02,61.915L148.02,61.915L148.02,61.915Z" fill-rule="evenodd" fill="#FFFFFF"/>
<path d="M228.396,55.0923C223.403,59.9181 217.246,62.4143 209.924,62.4143C202.602,62.4143 196.445,59.9181 191.453,55.0923C186.461,50.2664 183.965,44.1093 183.965,36.9537C183.965,29.6318 186.461,23.641 191.453,18.8152C196.445,13.9893 202.602,11.4932 209.924,11.4932C217.246,11.4932 223.403,13.9893 228.396,18.8152C233.388,23.641 235.884,29.7982 235.884,36.9537C235.884,44.2757 233.388,50.2664 228.396,55.0923L228.396,55.0923L228.396,55.0923ZM224.568,36.9537C224.568,32.6271 223.071,28.7997 220.242,25.6379C217.413,22.4762 213.918,20.9785 209.758,20.9785C205.598,20.9785 202.103,22.4762 199.274,25.6379C196.445,28.7997 194.947,32.4607 194.947,36.9537C194.947,41.2804 196.445,45.1078 199.274,48.2695C202.103,51.4313 205.598,52.929 209.758,52.929C213.918,52.929 217.413,51.4313 220.242,48.2695C223.237,45.1078 224.568,41.4468 224.568,36.9537L224.568,36.9537L224.568,36.9537Z" fill-rule="evenodd" fill="#FFFFFF"/>
</g>
</g>
<g id="layer1">
<g>
<path d="M15.5,47.7L6.4,47.7L6.4,69.1L27.7,69.1L27.7,59.9L15.5,59.9L15.5,47.7L15.5,47.7Z" fill-rule="evenodd" fill="#FFFFFF"/>
<path d="M61.3,47.8L61.3,59.9L49.1,59.9L49.1,59.8L49.1,69.1L70.4,69.1L70.4,47.7L61.2,47.7L61.3,47.8L61.3,47.8Z" fill-rule="evenodd" fill="#FFFFFF"/>
<path d="M6.4,26.4L15.6,26.4L15.5,26.3L15.5,14.2L27.7,14.2L27.7,5L6.4,5L6.4,26.4L6.4,26.4Z" fill-rule="evenodd" fill="#FFFFFF"/>
<path d="M49.1,5L49.1,14.2L61.3,14.2L61.3,26.4L70.4,26.4L70.4,5L49.1,5L49.1,5Z" fill-rule="evenodd" fill="#FFFFFF"/>
</g>
<g>
<path d="M35.7,14.2L49.1,14.2L49.1,5L27.7,5L27.7,14.2L35.7,14.2Z" fill-rule="evenodd" fill-opacity="0.5" fill="#FFFFFF"/>
<path d="M41,59.9L27.7,59.9L27.7,69.1L49.1,69.1L49.1,59.8L41,59.9Z" fill-rule="evenodd" fill-opacity="0.5" fill="#FFFFFF"/>
<path d="M61.3,26.4L61.3,39.7L61.2,47.7L70.4,47.7L70.4,26.4L61.3,26.4L61.3,26.4Z" fill-rule="evenodd" fill-opacity="0.5" fill="#FFFFFF"/>
<path d="M15.6,26.4L6.4,26.4L6.4,47.7L15.5,47.7L15.5,34.4L15.6,26.4Z" fill-rule="evenodd" fill-opacity="0.7" fill="#FFFFFF"/>
</g>
</g>
<g id="layer2" visibility="hidden">
<path d="M38.4,18.8747C28.362,18.8747 20.2247,27.012 20.2247,37.05C20.2247,47.088 28.362,55.2253 38.4,55.2253C48.438,55.2253 56.5753,47.088 56.5753,37.05C56.5753,27.012 48.438,18.8747 38.4,18.8747L38.4,18.8747L38.4,18.8747ZM38.4,22.3925C46.5006,22.3925 53.0575,28.9481 53.0575,37.05C53.0575,45.1506 46.5019,51.7075 38.4,51.7075C30.2994,51.7075 23.7425,45.1519 23.7425,37.05C23.7425,28.9494 30.2981,22.3925 38.4,22.3925L38.4,22.3925L38.4,22.3925ZM48.6752,31.9394L47.0236,30.2745C46.6816,29.9297 46.1247,29.9274 45.7799,30.2695L35.4206,40.5456L31.0386,36.128C30.6965,35.7832 30.1397,35.781 29.7949,36.123L28.1299,37.7746C27.7851,38.1166 27.7828,38.6735 28.1249,39.0184L34.778,45.7253C35.12,46.0701 35.6769,46.0724 36.0217,45.7303L48.6703,33.1832C49.015,32.8411 49.0172,32.2843 48.6752,31.9394L48.6752,31.9394L48.6752,31.9394Z" fill-rule="evenodd" fill="#FFFFFF"/>
</g>
<g id="layer3" visibility="hidden">
<g>
<path d="M250.78,62.1077L250.78,12.0003L260.761,12.0003L272.621,47.4788C273.715,50.7829 274.512,53.2552 275.014,54.8958C275.583,53.0729 276.472,50.3955 277.68,46.8636L289.677,12.0003L298.598,12.0003L298.598,62.1077L292.206,62.1077L292.206,20.1693L277.645,62.1077L271.664,62.1077L257.172,19.4515L257.172,62.1077L250.78,62.1077L250.78,62.1077Z" fill-rule="evenodd" fill-opacity="0.7" fill="#FFFFFF"/>
<path d="M307.279,37.7034C307.279,29.3864 309.512,22.8751 313.978,18.1697C318.444,13.4643 324.209,11.1116 331.273,11.1116C335.899,11.1116 340.069,12.2168 343.783,14.4271C347.497,16.6374 350.328,19.7192 352.277,23.6727C354.225,27.6261 355.199,32.1094 355.199,37.1224C355.199,42.2038 354.174,46.7497 352.123,50.7601C350.072,54.7705 347.167,57.8068 343.407,59.869C339.647,61.9311 335.591,62.9622 331.239,62.9622C326.522,62.9622 322.307,61.8229 318.593,59.5443C314.878,57.2656 312.064,54.1553 310.15,50.2132C308.236,46.2711 307.279,42.1012 307.279,37.7034L307.279,37.7034L307.279,37.7034ZM314.115,37.806C314.115,43.8444 315.739,48.6011 318.986,52.076C322.233,55.5509 326.306,57.2884 331.205,57.2884C336.195,57.2884 340.302,55.5338 343.527,52.0247C346.751,48.5156 348.363,43.5368 348.363,37.0882C348.363,33.0094 347.674,29.449 346.295,26.407C344.917,23.3651 342.9,21.0067 340.245,19.3319C337.591,17.657 334.611,16.8196 331.307,16.8196C326.613,16.8196 322.575,18.4318 319.191,21.6561C315.807,24.8804 314.115,30.2637 314.115,37.806L314.115,37.806L314.115,37.806Z" fill-rule="evenodd" fill-opacity="0.7" fill="#FFFFFF"/>
<path d="M363.676,62.1077L363.676,12.0003L370.477,12.0003L396.796,51.3411L396.796,12.0003L403.153,12.0003L403.153,62.1077L396.351,62.1077L370.033,22.7327L370.033,62.1077L363.676,62.1077L363.676,62.1077Z" fill-rule="evenodd" fill-opacity="0.7" fill="#FFFFFF"/>
<path d="M415.424,62.1077L415.424,12.0003L422.055,12.0003L422.055,62.1077L415.424,62.1077L415.424,62.1077Z" fill-rule="evenodd" fill-opacity="0.7" fill="#FFFFFF"/>
<path d="M446.493,62.1077L446.493,17.9134L429.984,17.9134L429.984,12.0003L469.701,12.0003L469.701,17.9134L453.124,17.9134L453.124,62.1077L446.493,62.1077L446.493,62.1077Z" fill-rule="evenodd" fill-opacity="0.7" fill="#FFFFFF"/>
<path d="M473.221,37.7034C473.221,29.3864 475.455,22.8751 479.921,18.1697C484.387,13.4643 490.152,11.1116 497.216,11.1116C501.841,11.1116 506.011,12.2168 509.725,14.4271C513.44,16.6374 516.271,19.7192 518.219,23.6727C520.167,27.6261 521.141,32.1094 521.141,37.1224C521.141,42.2038 520.116,46.7497 518.065,50.7601C516.014,54.7705 513.109,57.8068 509.349,59.869C505.59,61.9311 501.534,62.9622 497.181,62.9622C492.465,62.9622 488.249,61.8229 484.535,59.5443C480.821,57.2656 478.007,54.1553 476.093,50.2132C474.179,46.2711 473.221,42.1012 473.221,37.7034L473.221,37.7034L473.221,37.7034ZM480.057,37.806C480.057,43.8444 481.681,48.6011 484.928,52.076C488.175,55.5509 492.248,57.2884 497.147,57.2884C502.138,57.2884 506.245,55.5338 509.469,52.0247C512.693,48.5156 514.305,43.5368 514.305,37.0882C514.305,33.0094 513.616,29.449 512.238,26.407C510.859,23.3651 508.842,21.0067 506.188,19.3319C503.533,17.657 500.554,16.8196 497.25,16.8196C492.556,16.8196 488.517,18.4318 485.133,21.6561C481.749,24.8804 480.057,30.2637 480.057,37.806L480.057,37.806L480.057,37.806Z" fill-rule="evenodd" fill-opacity="0.7" fill="#FFFFFF"/>
<path d="M529.789,62.1077L529.789,12.0003L552.006,12.0003C556.472,12.0003 559.867,12.4503 562.191,13.3504C564.515,14.2505 566.373,15.8398 567.763,18.1185C569.153,20.3971 569.847,22.915 569.847,25.6722C569.847,29.2269 568.697,32.2233 566.395,34.6614C564.094,37.0996 560.539,38.6491 555.731,39.3099C557.486,40.153 558.819,40.9847 559.73,41.805C561.667,43.5823 563.501,45.804 565.233,48.47L573.949,62.1077L565.609,62.1077L558.978,51.6829C557.042,48.6751 555.446,46.3737 554.193,44.7786C552.94,43.1836 551.818,42.067 550.826,41.429C549.835,40.791 548.827,40.3467 547.802,40.096C547.05,39.9365 545.819,39.8568 544.11,39.8568L536.42,39.8568L536.42,62.1077L529.789,62.1077L529.789,62.1077ZM536.42,34.1146L550.673,34.1146C553.703,34.1146 556.073,33.8013 557.782,33.1746C559.491,32.548 560.79,31.5454 561.679,30.1668C562.567,28.7882 563.012,27.29 563.012,25.6722C563.012,23.3024 562.151,21.3541 560.431,19.8275C558.711,18.3008 555.993,17.5374 552.279,17.5374L536.42,17.5374L536.42,34.1146L536.42,34.1146Z" fill-rule="evenodd" fill-opacity="0.7" fill="#FFFFFF"/>
</g>
</g>
<g id="layer4" visibility="hidden">
<path d="M50.7049,23.8681C47.3283,20.4915 42.839,18.6319 38.0638,18.6319C33.2886,18.6319 28.7993,20.4915 25.4228,23.8681C22.0461,27.2445 20.1866,31.734 20.1866,36.5091C20.1866,41.2843 22.0461,45.7737 25.4228,49.1503C28.7993,52.5267 33.2886,54.3863 38.0639,54.3863C42.8391,54.3863 47.3285,52.5267 50.7049,49.1503C54.0814,45.7737 55.941,41.2843 55.941,36.5091C55.941,31.734 54.0814,27.2446 50.7049,23.8681L50.7049,23.8681L50.7049,23.8681ZM49.203,47.6483C46.2277,50.6236 42.2717,52.2622 38.0639,52.2622C33.856,52.2622 29.9001,50.6236 26.9248,47.6483C23.9494,44.6729 22.3107,40.7169 22.3107,36.5091C22.3107,32.3013 23.9494,28.3454 26.9248,25.37C29.9002,22.3946 33.856,20.756 38.0638,20.756C41.9156,20.756 45.5558,22.1299 48.4265,24.6445L45.5488,27.5222C43.4511,25.7689 40.831,24.8137 38.0638,24.8137C31.615,24.8137 26.3685,30.0602 26.3685,36.5091C26.3685,42.9579 31.615,48.2045 38.0638,48.2045C44.5126,48.2045 49.7592,42.9579 49.7592,36.5091L47.6351,36.5091C47.6351,41.7867 43.3414,46.0804 38.0638,46.0804C32.7862,46.0804 28.4927,41.7867 28.4927,36.5091C28.4927,31.2315 32.7863,26.9378 38.0638,26.9378C40.2629,26.9378 42.3484,27.6751 44.0393,29.0316L41.1393,31.9317C40.2375,31.323 39.1759,30.9955 38.0638,30.9955C35.0236,30.9955 32.5503,33.469 32.5503,36.5091C32.5503,39.5492 35.0236,42.0226 38.0638,42.0226C41.104,42.0226 43.5773,39.5492 43.5773,36.5091L41.4532,36.5091C41.4532,38.378 39.9327,39.8985 38.0638,39.8985C36.195,39.8985 34.6745,38.378 34.6745,36.5091C34.6745,34.6403 36.195,33.1197 38.0639,33.1197C38.6027,33.1197 39.122,33.2456 39.5894,33.4817L37.3129,35.7581L38.8149,37.2601L49.9285,26.1464C52.4431,29.0172 53.817,32.6574 53.817,36.5091C53.8169,40.7169 52.1783,44.6729 49.203,47.6483L49.203,47.6483L49.203,47.6483Z" fill-rule="evenodd" fill="#FFFFFF"/>
</g>
<g id="layer5">
<g>
<g mask="url(#mask)">
<path d="M261.861,62.7728L261.861,17.9471L245.116,17.9471L245.116,11.9496L285.4,11.9496L285.4,17.9471L268.586,17.9471L268.586,62.7728L261.861,62.7728L261.861,62.7728Z" fill-rule="evenodd" fill-opacity="0.7" fill="#FFFFFF"/>
</g>
<g mask="url(#mask_2)">
<path d="M295.403,62.7728L295.403,11.9496L317.937,11.9496C322.467,11.9496 325.911,12.406 328.268,13.319C330.626,14.2319 332.509,15.8439 333.919,18.1551C335.329,20.4663 336.034,23.0202 336.034,25.8168C336.034,29.4222 334.867,32.4615 332.533,34.9344C330.198,37.4074 326.593,38.979 321.716,39.6493C323.496,40.5044 324.848,41.348 325.772,42.18C327.737,43.9828 329.597,46.2362 331.354,48.9403L340.194,62.7728L331.735,62.7728L325.01,52.1991C323.045,49.1483 321.427,46.814 320.156,45.1962C318.885,43.5783 317.747,42.4458 316.741,41.7987C315.736,41.1516 314.713,40.7009 313.673,40.4466C312.911,40.2849 311.662,40.204 309.929,40.204L302.129,40.204L302.129,62.7728L295.403,62.7728L295.403,62.7728ZM302.129,34.3797L316.585,34.3797C319.659,34.3797 322.063,34.062 323.796,33.4264C325.53,32.7908 326.847,31.7739 327.748,30.3756C328.65,28.9773 329.1,27.4577 329.1,25.8168C329.1,23.4131 328.228,21.437 326.483,19.8885C324.738,18.34 321.982,17.5658 318.215,17.5658L302.129,17.5658L302.129,34.3797L302.129,34.3797Z" fill-rule="evenodd" fill-opacity="0.7" fill="#FFFFFF"/>
</g>
<g mask="url(#mask_3)">
<path d="M350.717,62.7728L350.717,11.9496L357.443,11.9496L357.443,62.7728L350.717,62.7728L350.717,62.7728Z" fill-rule="evenodd" fill-opacity="0.7" fill="#FFFFFF"/>
</g>
<g mask="url(#mask_4)">
<path d="M372.022,62.7728L372.022,11.9496L391.089,11.9496C394.972,11.9496 398.086,12.4638 400.432,13.4923C402.778,14.5208 404.616,16.1039 405.944,18.2418C407.273,20.3797 407.938,22.6157 407.938,24.9501C407.938,27.1226 407.349,29.168 406.17,31.0863C404.991,33.0046 403.211,34.5531 400.831,35.7318C403.905,36.6332 406.268,38.1701 407.921,40.3426C409.573,42.5152 410.399,45.0806 410.399,48.0389C410.399,50.4195 409.897,52.6324 408.891,54.6778C407.886,56.7233 406.644,58.3006 405.164,59.41C403.685,60.5194 401.831,61.3572 399.6,61.9234C397.37,62.4897 394.637,62.7728 391.401,62.7728L372.022,62.7728L372.022,62.7728ZM378.747,33.305L389.737,33.305C392.719,33.305 394.856,33.1086 396.151,32.7157C397.861,32.2072 399.15,31.3636 400.016,30.1849C400.883,29.0062 401.316,27.527 401.316,25.7474C401.316,24.0602 400.912,22.5753 400.103,21.2926C399.294,20.0099 398.138,19.1316 396.636,18.6578C395.134,18.184 392.557,17.9471 388.905,17.9471L378.747,17.9471L378.747,33.305L378.747,33.305ZM378.747,56.7753L391.401,56.7753C393.574,56.7753 395.099,56.6944 395.977,56.5326C397.526,56.2552 398.82,55.793 399.86,55.1459C400.9,54.4987 401.755,53.5569 402.426,52.3204C403.096,51.0839 403.431,49.6568 403.431,48.0389C403.431,46.1437 402.946,44.497 401.975,43.0987C401.004,41.7005 399.658,40.7182 397.936,40.152C396.214,39.5857 393.736,39.3026 390.5,39.3026L378.747,39.3026L378.747,56.7753L378.747,56.7753Z" fill-rule="evenodd" fill-opacity="0.7" fill="#FFFFFF"/>
</g>
<g mask="url(#mask_5)">
<path d="M456.006,11.9496L462.732,11.9496L462.732,41.3133C462.732,46.4211 462.154,50.4772 460.998,53.4818C459.843,56.4864 457.757,58.9304 454.741,60.8141C451.725,62.6977 447.767,63.6395 442.867,63.6395C438.106,63.6395 434.212,62.819 431.184,61.1781C428.156,59.5371 425.995,57.1624 424.701,54.0538C423.407,50.9453 422.76,46.6984 422.76,41.3133L422.76,11.9496L429.485,11.9496L429.485,41.2787C429.485,45.6931 429.895,48.9461 430.716,51.0377C431.536,53.1293 432.946,54.7414 434.945,55.8739C436.945,57.0064 439.389,57.5726 442.278,57.5726C447.224,57.5726 450.748,56.4517 452.851,54.2098C454.955,51.968 456.006,47.6576 456.006,41.2787L456.006,11.9496L456.006,11.9496Z" fill-rule="evenodd" fill-opacity="0.7" fill="#FFFFFF"/>
</g>
<g mask="url(#mask_6)">
<path d="M489.861,62.7728L489.861,17.9471L473.116,17.9471L473.116,11.9496L513.4,11.9496L513.4,17.9471L496.586,17.9471L496.586,62.7728L489.861,62.7728L489.861,62.7728Z" fill-rule="evenodd" fill-opacity="0.7" fill="#FFFFFF"/>
</g>
<g mask="url(#mask_7)">
<path d="M519.971,38.0199C519.971,29.584 522.236,22.9798 526.766,18.2071C531.296,13.4345 537.143,11.0482 544.308,11.0482C549,11.0482 553.229,12.1691 556.996,14.411C560.764,16.6529 563.635,19.7788 565.611,23.7887C567.588,27.7986 568.576,32.3459 568.576,37.4305C568.576,42.5845 567.536,47.1953 565.455,51.263C563.375,55.3308 560.429,58.4104 556.615,60.5021C552.802,62.5937 548.688,63.6395 544.273,63.6395C539.489,63.6395 535.213,62.4839 531.446,60.1727C527.679,57.8615 524.825,54.7067 522.883,50.7084C520.942,46.71 519.971,42.4805 519.971,38.0199L519.971,38.0199ZM526.905,38.1239C526.905,44.2486 528.551,49.0732 531.845,52.5978C535.138,56.1223 539.27,57.8846 544.239,57.8846C549.3,57.8846 553.466,56.105 556.736,52.5458C560.007,48.9865 561.642,43.9365 561.642,37.3959C561.642,33.2588 560.943,29.6476 559.545,26.5621C558.146,23.4767 556.101,21.0846 553.408,19.3858C550.716,17.6871 547.694,16.8378 544.343,16.8378C539.582,16.8378 535.485,18.4729 532.053,21.7433C528.621,25.0136 526.905,30.4738 526.905,38.1239L526.905,38.1239Z" fill-rule="evenodd" fill-opacity="0.7" fill="#FFFFFF"/>
</g>
<g mask="url(#mask_8)">
<path d="M580.347,62.7728L580.347,11.9496L602.881,11.9496C607.411,11.9496 610.854,12.406 613.212,13.319C615.569,14.2319 617.453,15.8439 618.863,18.1551C620.272,20.4663 620.977,23.0202 620.977,25.8168C620.977,29.4222 619.81,32.4615 617.476,34.9344C615.142,37.4074 611.536,38.979 606.66,39.6493C608.439,40.5044 609.791,41.348 610.716,42.18C612.68,43.9828 614.541,46.2362 616.297,48.9403L625.138,62.7728L616.679,62.7728L609.953,52.1991C607.988,49.1483 606.371,46.814 605.099,45.1962C603.828,43.5783 602.69,42.4458 601.685,41.7987C600.679,41.1516 599.657,40.7009 598.617,40.4466C597.854,40.2849 596.606,40.204 594.872,40.204L587.072,40.204L587.072,62.7728L580.347,62.7728L580.347,62.7728ZM587.072,34.3797L601.529,34.3797C604.603,34.3797 607.006,34.062 608.74,33.4264C610.473,32.7908 611.79,31.7739 612.692,30.3756C613.593,28.9773 614.044,27.4577 614.044,25.8168C614.044,23.4131 613.171,21.437 611.426,19.8885C609.681,18.34 606.925,17.5658 603.158,17.5658L587.072,17.5658L587.072,34.3797L587.072,34.3797Z" fill-rule="evenodd" fill-opacity="0.7" fill="#FFFFFF"/>
</g>
</g>
</g>
<g id="layer6">
<path d="M31.2831,30.4976L28.1198,27.216L18.63,37.0609L28.1198,46.9099L31.2831,43.6283L24.9565,37.0609L31.2831,30.4976L31.2831,30.4976Z" fill-rule="evenodd" fill="#FFFFFF"/>
<path d="M45.9769,43.6283L49.1402,46.9099L58.63,37.0609L49.1402,27.212L45.9769,30.4976L52.3035,37.0609L45.9769,43.6283L45.9769,43.6283Z" fill-rule="evenodd" fill="#FFFFFF"/>
<path d="M42.8423,22.9385L47.0137,24.8854L34.7525,51.1834L30.5811,49.2365L42.8423,22.9385L42.8423,22.9385Z" fill-rule="evenodd" fill="#FFFFFF"/>
</g>
<g id="layer7" visibility="hidden">
<path d="M36.9796,27.6551L32.2347,22.7327L18,37.5L32.2347,52.2735L36.9796,47.351L27.4898,37.5L36.9796,27.6551L36.9796,27.6551Z" fill="#FFFFFF"/>
<path d="M39.0204,47.351L43.7653,52.2735L58,37.5L43.7653,22.7266L39.0204,27.6551L48.5102,37.5L39.0204,47.351L39.0204,47.351Z" fill="#FFFFFF"/>
</g>
</svg>
